<svg xmlns="http://www.w3.org/2000/svg" xmlns:xlink="http://www.w3.org/1999/xlink" viewBox="0 0 612 792"><defs><style>.cls-1{fill:none;}.cls-2{fill:#10293e;}.cls-3{clip-path:url(#clip-path);}.cls-4{fill:#3ab3e7;}.cls-5,.cls-7{fill:#fff;}.cls-5{stroke:#10293e;stroke-miterlimit:10;stroke-width:3px;}.cls-6{clip-path:url(#clip-path-2);}.cls-7{font-size:100.47px;font-family:Geometric415BT-BlackA, Geometr415 Blk BT;font-weight:800;letter-spacing:0.15em;}</style><clipPath id="clip-path"><path class="cls-1" d="M38.45,360.1A262.33,262.33,0,0,0,50.8,397.79c7.93,19,15.65,31.18,22.64,40,9,11.26,14.19,16.91,19.92,20.87,6.61,4.55,18.22,9.28,21.88,10.28,14.49,4,23.93,4,27,3.91,14.14-.37,25-4.09,33.73-7.84,3-1.29,6.41-2.26,9.44-4,26.39-15.36,36.9-37.43,29.17-62.72h0a120,120,0,0,1-2.82-91.14l3.65-54.79c-.84-.56.53-14.17-.22-14.85-1.26-1.16-49.32-31.54-53.08-34.28-50.62-37-107.16-28.75-136.76,26.49h0a110.82,110.82,0,0,0-3.15,65Z"/></clipPath><clipPath id="clip-path-2"><path class="cls-1" d="M574.48,359.47a262.29,262.29,0,0,1-12.34,37.69c-7.93,19-15.65,31.18-22.64,40-9,11.26-14.19,16.91-19.92,20.87-6.61,4.56-18.23,9.28-21.88,10.28-14.5,4-23.93,4-27,3.92-14.15-.38-24.95-4.1-33.74-7.85-3-1.29-6.41-2.26-9.44-4-26.38-15.36-36.9-37.43-29.17-62.72h0a120,120,0,0,0,2.82-91.14l-3.64-54.79c.84-.56-.53-14.17.21-14.85,1.27-1.16,49.33-31.54,53.09-34.28C501.45,165.57,558,173.78,587.6,229h0a110.82,110.82,0,0,1,3.14,65Z"/></clipPath></defs><title>logo</title><g id="Layer_2" data-name="Layer 2"><rect class="cls-2" width="612" height="792"/></g><g id="Layer_1" data-name="Layer 1"><g class="cls-3"><path class="cls-4" d="M156.31,469a159.24,159.24,0,0,1-33.73,3.5,3.39,3.39,0,0,1-1.4-.3L69.74,449.09a3.33,3.33,0,0,1-1.57-1.44s-21.53-45.71-21.6-46L29.7,342.52a3.35,3.35,0,0,1,5-3.63Q65.4,358,83.23,365.12q19.38,7.75,35.85,7.91a3.29,3.29,0,0,0,1.42-.3l2.59-1.16c3.68-1.65,3.43-7.92-.34-9.23l-.29-.1L87.66,350q-34.2-11.67-51.89-32.72T18.08,267.54q0-40.64,28.51-65.29,28.05-24.28,74.5-24.63a3.37,3.37,0,0,1,2.35.93l7.65,7.29a3.18,3.18,0,0,0,1.09.68c39.59,15.34,82.57,56.22,79.76,98.44h0a3.36,3.36,0,0,1-5.43,2.4,144.27,144.27,0,0,0-34.28-19.84q-21.3-8.67-39.88-8.68c-8.91,0-16.2,2-21.92,6a3.53,3.53,0,0,0-.94,1l-.78,1.3c-1.51,2.51-.8,6.06,1.54,7.45q6,3.58,17.91,7.53l32.38,11.67q38.07,13.44,54.42,32.55t16.35,49.89q0,44.52-29.41,70.37-15.9,14-38.18,20.44"/></g><path class="cls-5" d="M237.82,474.63s-28.19,41.2-86.74,41.2S83.89,466,83.89,466l17.44,9.6a92.86,92.86,0,0,0,102-8.07c1.24-1,1.92-1.53,1.92-1.53Z"/><path class="cls-5" d="M530.49,466s-8.67,49.85-67.22,49.85-86.71-41.2-86.71-41.2l30.36-10.82s.66.56,1.93,1.54c29.26,22.95,71.62,28.14,104.2,10.23Z"/><path class="cls-4" d="M319.87,576.74c13.35-19.74,22-26.22,37.18-65.25l13-43.34,32.52-10.84L380.9,435.62l12.87-68A94.66,94.66,0,0,0,395.15,343l-4.89-65.3a22.68,22.68,0,0,0-8.07-15.61c-64.37-53.77-129.71-16.89-152.9-.32A22.38,22.38,0,0,0,220,278.92l-3.22,66.24a94.43,94.43,0,0,0,2,24.54l14.74,68.09-23.85,21.69L240,468.15l19.49,43.34s23.86,39-2.14,97.58c0,0-20.61,48.77-3.26,83.46,19.29,38.6,75.4,30.53,94.72-3.09,6.46-11.23,9-24.48,8.21-37.4-.73-11.76-6.07-21.35-17-27.14-8.84-4.67-23.84-9.67-37.84-1.67-6.87,3.92-13.12,11.61-14.63,19.38a23.78,23.78,0,0,0-.41,6.07.52.52,0,0,0,1,.22,18.2,18.2,0,0,1,20.46-9.33c7.4,1.94,11.68,8.2,13.12,15.42,0,.12.05.24.08.39,3.77,21.68-26.36,32-36.57,12.45-5.56-10.57-4.48-21.05-1.59-33.21C289,612,307.23,595.42,319.87,576.74Zm53.55-236.52s2.17,19.51,0,26-10.84,15.18-26,10.84C347.4,377.08,349.57,338.05,373.42,340.22ZM240,366.24c-2.16-6.51,0-26,0-26,23.83-2.17,26,36.86,26,36.86C250.83,381.42,242.15,372.74,240,366.24Z"/><g class="cls-6"><path class="cls-4" d="M456.63,468.33a159.24,159.24,0,0,0,33.73,3.5,3.39,3.39,0,0,0,1.4-.3l51.44-23.07a3.28,3.28,0,0,0,1.57-1.44s21.52-45.71,21.59-46l16.88-59.13a3.35,3.35,0,0,0-5-3.63q-30.68,19.1-48.49,26.23-19.38,7.75-35.86,7.91a3.33,3.33,0,0,1-1.42-.3l-2.58-1.16c-3.68-1.65-3.44-7.92.34-9.23l.29-.1,34.79-12.25q34.22-11.67,51.9-32.72t17.68-49.73q0-40.64-28.5-65.29-28.07-24.28-74.5-24.63a3.35,3.35,0,0,0-2.35.93l-7.66,7.29a3.14,3.14,0,0,1-1.08.68c-39.59,15.34-82.58,56.22-79.77,98.44h0a3.36,3.36,0,0,0,5.44,2.4,143.88,143.88,0,0,1,34.28-19.84q21.3-8.67,39.88-8.68,13.37,0,21.91,6a3.39,3.39,0,0,1,.94,1l.78,1.3c1.51,2.51.81,6.06-1.53,7.45q-6,3.58-17.91,7.53L452.4,293.2Q414.32,306.66,398,325.75t-16.34,49.89q0,44.52,29.4,70.37,15.92,14,38.19,20.44"/></g><text class="cls-7" transform="translate(77.46 157.71)">EDE<tspan class="cls-4" x="232.76" y="0">SS</tspan><tspan x="373.57" y="0">IO</tspan></text></g></svg>