<svg xmlns="http://www.w3.org/2000/svg" xmlns:xlink="http://www.w3.org/1999/xlink" viewBox="0 0 612 579.29"><defs><style>.cls-1{fill:none;}.cls-2{fill:#10293e;}.cls-3{clip-path:url(#clip-path);}.cls-4{fill:#3ab3e7;}.cls-5{fill:#fff;stroke:#10293e;stroke-miterlimit:10;stroke-width:3px;}.cls-6{clip-path:url(#clip-path-2);}</style><clipPath id="clip-path"><path class="cls-1" d="M38,200.65a264,264,0,0,0,12.35,37.69c7.93,19,15.65,31.18,22.64,40,9,11.27,14.19,16.92,19.92,20.87,6.61,4.56,18.22,9.29,21.88,10.29,14.5,4,23.93,4,27,3.91,14.15-.38,25-4.09,33.73-7.84,3-1.3,6.41-2.26,9.44-4,26.39-15.36,36.9-37.43,29.18-62.72h0a120,120,0,0,1-2.83-91.14l3.65-54.8c-.84-.55.53-14.17-.22-14.85-1.26-1.15-49.32-31.53-53.08-34.27C111,6.75,54.47,15,24.87,70.2h0a110.79,110.79,0,0,0-3.14,65Z"/></clipPath><clipPath id="clip-path-2"><path class="cls-1" d="M574,200a264,264,0,0,1-12.35,37.69c-7.93,19-15.65,31.18-22.64,40-9,11.27-14.19,16.92-19.92,20.87-6.61,4.56-18.22,9.29-21.88,10.29-14.5,4-23.93,4-27,3.91-14.15-.38-24.95-4.09-33.73-7.84-3-1.3-6.41-2.26-9.44-4-26.39-15.36-36.9-37.43-29.18-62.72h0A120,120,0,0,0,400.72,147l-3.65-54.8c.84-.55-.53-14.17.22-14.85,1.26-1.15,49.32-31.53,53.08-34.27C501,6.12,557.53,14.32,587.13,69.57h0a110.79,110.79,0,0,1,3.14,65Z"/></clipPath></defs><title>logo</title><g id="Capa_4" data-name="Capa 4"><rect class="cls-2" width="612" height="579.29"/><g class="cls-3"><path class="cls-4" d="M155.84,309.51A158.58,158.58,0,0,1,122.11,313a3.38,3.38,0,0,1-1.4-.29L69.27,289.64a3.35,3.35,0,0,1-1.57-1.45s-21.53-45.7-21.6-46L29.23,183.07a3.36,3.36,0,0,1,5-3.64q30.67,19.09,48.49,26.23,19.38,7.76,35.86,7.92a3.4,3.4,0,0,0,1.41-.3l2.59-1.16c3.68-1.66,3.44-7.92-.34-9.24-.1,0-.2-.07-.29-.09L87.2,190.53Q53,178.88,35.3,157.81T17.62,108.09q0-40.65,28.5-65.3,28-24.27,74.5-24.62a3.37,3.37,0,0,1,2.35.93l7.65,7.28a3.36,3.36,0,0,0,1.09.69c39.59,15.34,82.58,56.21,79.76,98.44h0a3.36,3.36,0,0,1-5.43,2.4,144.11,144.11,0,0,0-34.28-19.85q-21.3-8.66-39.88-8.67-13.36,0-21.91,6a3.27,3.27,0,0,0-.94,1l-.78,1.29c-1.51,2.51-.81,6.07,1.53,7.46q6,3.57,17.91,7.52l32.38,11.67q38.07,13.45,54.43,32.55t16.34,49.9q0,44.51-29.4,70.36a97.5,97.5,0,0,1-38.19,20.45"/></g><path class="cls-5" d="M237.35,315.17s-28.19,41.2-86.74,41.2-67.19-49.84-67.19-49.84l17.44,9.59a92.88,92.88,0,0,0,102-8.06c1.24-1,1.92-1.53,1.92-1.53Z"/><path class="cls-5" d="M530,306.53s-8.67,49.84-67.21,49.84-86.71-41.2-86.71-41.2l30.35-10.81s.66.56,1.93,1.53C437.64,328.84,480,334,512.58,316.12Z"/><path class="cls-4" d="M319.4,417.28c13.35-19.73,22-26.21,37.18-65.24l13-43.35,32.53-10.84-21.69-21.68,12.87-68a94.74,94.74,0,0,0,1.39-24.59l-4.9-65.29a22.66,22.66,0,0,0-8.07-15.62c-64.36-53.77-129.71-16.88-152.9-.31a22.36,22.36,0,0,0-9.33,17.12l-3.22,66.25a94.38,94.38,0,0,0,2,24.53L233,278.34,209.16,300l30.36,8.67L259,352s23.85,39-2.15,97.57c0,0-20.61,48.78-3.26,83.47,19.29,38.59,75.4,30.53,94.72-3.09,6.46-11.24,9-24.49,8.21-37.4-.73-11.77-6.06-21.36-17-27.14-8.84-4.68-23.84-9.68-37.84-1.68-6.87,3.93-13.12,11.62-14.63,19.39a24.67,24.67,0,0,0-.41,6.06.52.52,0,0,0,1,.22,18.2,18.2,0,0,1,20.46-9.32c7.4,1.93,11.68,8.2,13.13,15.42,0,.12.05.24.07.39,3.78,21.68-26.36,32-36.57,12.45-5.55-10.58-4.48-21.05-1.58-33.21C288.51,452.58,306.76,436,319.4,417.28ZM373,180.76s2.17,19.52,0,26-10.84,15.18-26,10.84C346.93,217.62,349.1,178.59,373,180.76Zm-133.43,26c-2.17-6.5,0-26,0-26,23.82-2.17,26,36.86,26,36.86C250.36,222,241.68,213.29,239.52,206.78Z"/><g class="cls-6"><path class="cls-4" d="M456.16,308.88a159.24,159.24,0,0,0,33.73,3.5,3.56,3.56,0,0,0,1.4-.3L542.73,289a3.35,3.35,0,0,0,1.57-1.45s21.53-45.7,21.6-46l16.87-59.13a3.36,3.36,0,0,0-5-3.64Q547.05,197.9,529.24,205q-19.38,7.75-35.86,7.92a3.4,3.4,0,0,1-1.41-.3l-2.59-1.16c-3.68-1.66-3.44-7.92.34-9.24.1,0,.2-.07.29-.09L524.8,189.9q34.22-11.65,51.9-32.72t17.68-49.72q0-40.63-28.5-65.3-28.05-24.27-74.5-24.62a3.37,3.37,0,0,0-2.35.93l-7.65,7.28a3.36,3.36,0,0,1-1.09.69c-39.59,15.34-82.58,56.21-79.76,98.44h0a3.36,3.36,0,0,0,5.43,2.4,144.45,144.45,0,0,1,34.28-19.85q21.3-8.66,39.88-8.67,13.36,0,21.91,6a3.27,3.27,0,0,1,.94,1l.78,1.29c1.51,2.51.81,6.07-1.53,7.46q-6,3.57-17.91,7.53l-32.38,11.67q-38.07,13.44-54.43,32.54t-16.34,49.9q0,44.52,29.4,70.36A97.5,97.5,0,0,0,448.75,307"/></g></g></svg>